<svg width="1920" height="1080" viewBox="0 0 1920 1080" fill="none" xmlns="http://www.w3.org/2000/svg">
  <defs>
    <linearGradient id="heroGradient" x1="0%" y1="0%" x2="100%" y2="100%">
      <stop offset="0%" style="stop-color:#059669;stop-opacity:1" />
      <stop offset="100%" style="stop-color:#10b981;stop-opacity:1" />
    </linearGradient>
  </defs>
  
  <!-- Background -->
  <rect width="1920" height="1080" fill="url(#heroGradient)"/>
  
  <!-- Agricultural Pattern -->
  <g opacity="0.1">
    <!-- Wheat stalks -->
    <path d="M200 200 L200 400 M190 200 L210 200 M190 250 L210 250 M190 300 L210 300 M190 350 L210 350" stroke="white" stroke-width="3" fill="none"/>
    <path d="M400 200 L400 400 M390 200 L410 200 M390 250 L410 250 M390 300 L410 300 M390 350 L410 350" stroke="white" stroke-width="3" fill="none"/>
    <path d="M600 200 L600 400 M590 200 L610 200 M590 250 L610 250 M590 300 L610 300 M590 350 L610 350" stroke="white" stroke-width="3" fill="none"/>
    <path d="M800 200 L800 400 M790 200 L810 200 M790 250 L810 250 M790 300 L810 300 M790 350 L810 350" stroke="white" stroke-width="3" fill="none"/>
    <path d="M1000 200 L1000 400 M990 200 L1010 200 M990 250 L1010 250 M990 300 L1010 300 M990 350 L1010 350" stroke="white" stroke-width="3" fill="none"/>
    <path d="M1200 200 L1200 400 M1190 200 L1210 200 M1190 250 L1210 250 M1190 300 L1210 300 M1190 350 L1210 350" stroke="white" stroke-width="3" fill="none"/>
    <path d="M1400 200 L1400 400 M1390 200 L1410 200 M1390 250 L1410 250 M1390 300 L1410 300 M1390 350 L1410 350" stroke="white" stroke-width="3" fill="none"/>
    <path d="M1600 200 L1600 400 M1590 200 L1610 200 M1590 250 L1610 250 M1590 300 L1610 300 M1590 350 L1610 350" stroke="white" stroke-width="3" fill="none"/>
    <path d="M1800 200 L1800 400 M1790 200 L1810 200 M1790 250 L1810 250 M1790 300 L1810 300 M1790 350 L1810 350" stroke="white" stroke-width="3" fill="none"/>
  </g>
  
  <!-- Central Icon -->
  <g transform="translate(960, 540)">
    <!-- Tractor -->
    <rect x="-100" y="-20" width="200" height="40" rx="20" fill="white" opacity="0.3"/>
    <circle cx="-60" cy="20" r="30" fill="white" opacity="0.3"/>
    <circle cx="60" cy="20" r="30" fill="white" opacity="0.3"/>
    <rect x="-120" y="-40" width="40" height="20" rx="10" fill="white" opacity="0.3"/>
  </g>
  
  <!-- Text -->
  <text x="960" y="600" text-anchor="middle" fill="white" font-family="Arial, sans-serif" font-size="48" font-weight="bold" opacity="0.8">
    Musika Wedu
  </text>
  <text x="960" y="650" text-anchor="middle" fill="white" font-family="Arial, sans-serif" font-size="24" opacity="0.6">
    Zimbabwe's Premier Agricultural Marketplace
  </text>
</svg>




